<?xml version="1.0" encoding="UTF-8"?>
<svg width="410" height="230" xmlns="http://www.w3.org/2000/svg">
<style>text {
    color: #a89f9bff;
}

tspan {
    fill: #f3f3f3;
}

/* @media (prefers-color-scheme: dark) {
}
@media (prefers-color-scheme: light) {
    tspan {
        fill: #333;
        fill: #f3f3f3;
    }
} */

@keyframes fadeIn {
    from {
        opacity: 0;
    }
    to {
        opacity: 1;
    }
}
@keyframes slideIn {
    from {
        width: 0;
    }
    to {
        width: 660;
    }
}

#lang_legend,
#title {
    opacity: 0;
    animation: fadeIn 1s ease-in forwards;
}
#bar_back {
    animation: slideIn 1.7s ease-in forwards;
}
</style>
<rect id="border" x="1" y="1" width="408" height="228" fill='#19140fff' stroke-width="1" rx="15" ry="15" />
<text id="title" x="20" y="40" font-size="18" font-weight="bold" fill='#db4c0fff' font-family="system-ui, -apple-system, sans-serif">Most Used Languages</text>

<defs>
    <clipPath id="roundedClip">
        <rect id="bar_back" x="20" y="60" width="370" height="10" rx="5" ry="5">
        </rect>
    </clipPath>
</defs>
<rect width="370" height="10" x="20" y="60" rx="5" ry="5" fill='#ccc' />
<g clip-path="url(#roundedClip)">
    <rect x="20" y="60" width="212" height="10" fill="#dea584"> <title>Rust 57.38%</title> </rect>
    <rect x="232" y="60" width="134" height="10" fill="#3178c6"> <title>TypeScript 36.22%</title> </rect>
    <rect x="366" y="60" width="12" height="10" fill="#663399"> <title>CSS 3.27%</title> </rect>
    <rect x="378" y="60" width="8" height="10" fill="#3572A5"> <title>Python 2.30%</title> </rect>
    <rect x="386" y="60" width="3" height="10" fill="#f1e05a"> <title>JavaScript 0.78%</title> </rect>
    <rect x="389" y="60" width="0" height="10" fill="#c7254e"> <title>jq 0.02%</title> </rect>
    <rect x="389" y="60" width="0" height="10" fill="#e34c26"> <title>HTML 0.02%</title> </rect>
    <rect x="389" y="60" width="0" height="10" fill="#384d54"> <title>Just 0.01%</title> </rect>
    <rect x="389" y="60" width="0" height="10" fill="#427819"> <title>Makefile 0.01%</title> </rect>
    <rect x="389" y="60" width="0" height="10" fill="#384d54"> <title>Dockerfile 0.01%</title> </rect>
</g>
<g id="lang_legend">
<circle cx="30" cy="100" r="6" fill="#dea584" />
<text x="46" y="104" font-size="13" font-family="system-ui, -apple-system, sans-serif" fill='currentColor'><tspan>Rust</tspan> 57.38%</text>
<circle cx="225" cy="100" r="6" fill="#3178c6" />
<text x="241" y="104" font-size="13" font-family="system-ui, -apple-system, sans-serif" fill='currentColor'><tspan>TypeScript</tspan> 36.22%</text>
<circle cx="30" cy="124" r="6" fill="#663399" />
<text x="46" y="128" font-size="13" font-family="system-ui, -apple-system, sans-serif" fill='currentColor'><tspan>CSS</tspan> 3.27%</text>
<circle cx="225" cy="124" r="6" fill="#3572A5" />
<text x="241" y="128" font-size="13" font-family="system-ui, -apple-system, sans-serif" fill='currentColor'><tspan>Python</tspan> 2.30%</text>
<circle cx="30" cy="148" r="6" fill="#f1e05a" />
<text x="46" y="152" font-size="13" font-family="system-ui, -apple-system, sans-serif" fill='currentColor'><tspan>JavaScript</tspan> 0.78%</text>
<circle cx="225" cy="148" r="6" fill="#c7254e" />
<text x="241" y="152" font-size="13" font-family="system-ui, -apple-system, sans-serif" fill='currentColor'><tspan>jq</tspan> 0.02%</text>
<circle cx="30" cy="172" r="6" fill="#e34c26" />
<text x="46" y="176" font-size="13" font-family="system-ui, -apple-system, sans-serif" fill='currentColor'><tspan>HTML</tspan> 0.02%</text>
<circle cx="225" cy="172" r="6" fill="#384d54" />
<text x="241" y="176" font-size="13" font-family="system-ui, -apple-system, sans-serif" fill='currentColor'><tspan>Just</tspan> 0.01%</text>
<circle cx="30" cy="196" r="6" fill="#427819" />
<text x="46" y="200" font-size="13" font-family="system-ui, -apple-system, sans-serif" fill='currentColor'><tspan>Makefile</tspan> 0.01%</text>
<circle cx="225" cy="196" r="6" fill="#384d54" />
<text x="241" y="200" font-size="13" font-family="system-ui, -apple-system, sans-serif" fill='currentColor'><tspan>Dockerfile</tspan> 0.01%</text>
</g>
</svg>
