<?xml version="1.0" encoding="UTF-8"?>
<svg xmlns="http://www.w3.org/2000/svg" width="1100" height="620" viewBox="0 0 1100 620" font-family="ConsolasFallback,Consolas,Menlo,monospace" font-size="15px" role="img" aria-labelledby="title desc">
<title id="title">Hiro profile card</title>
<desc id="desc">An ASCII portrait of Hiro beside profile, environment, language, and tooling information.</desc>
<style>
@font-face {
  src: local('Consolas'), local('Consolas Bold');
  font-family: 'ConsolasFallback';
  font-display: swap;
  size-adjust: 109%;
}
.body { fill: #c9d1d9; }
.key { fill: #ffa657; }
.value { fill: #a5d6ff; }
.muted { fill: #616e7f; }
.ascii { font-size: 14px; }
text { white-space: pre; font-variant-ligatures: none; }
</style>
<rect width="1100" height="620" rx="15" fill="#161b22"/>
<text x="15" y="20" class="body ascii">                           ,.</text>
<text x="15" y="35" class="body ascii">                        ,:rrrrisirri;:</text>
<text x="15" y="50" class="body ascii">                   ,r;;A25555AA2XXrs52s:</text>
<text x="15" y="65" class="body ascii">            ,:;;rirXriXAArrXssAAAAssAAXiii;,</text>
<text x="15" y="80" class="body ascii">          ,rA22535rrrXXsisssirsXXX2252222AXXi,</text>
<text x="15" y="95" class="body ascii">        ;;rA2255h35AXsi;rri;;;iissXsAAXX2As;;s:</text>
<text x="15" y="110" class="body ascii">       rrrsAAAAsr;:rr:,;i;;ii;;ii;;isXAXXXAAr::;</text>
<text x="15" y="125" class="body ascii">     :ssXsssXssi:,A32i:;:;;;::;;;:::;irssrXAAAsi:</text>
<text x="15" y="140" class="body ascii">     riri;irrsr;iX2X:,::::::::::,::,,,::;iisAA2ii</text>
<text x="15" y="155" class="body ascii">    ;rissisrr;;rAs. ,:iri;;,,,,,:::,,,,,,,.:rsXX;;</text>
<text x="15" y="170" class="body ascii">   :,iXssrrr;;isr,,;sAA2252AXrsAAAAAAXi;;i;,,iiXX;,</text>
<text x="15" y="185" class="body ascii">   ,:rs;i;i;i;ii:;sX25553hhhhhhh3333552AsrXs,::sir,</text>
<text x="15" y="200" class="body ascii">    :;ii:;;;;;;;;rXA225553333h3353535552AAXX:;,i:;:.</text>
<text x="15" y="215" class="body ascii">    ,isi:;i:;;iirXXAAA2AAA222222AA2225552AXXXs;;i;:,</text>
<text x="15" y="230" class="body ascii">    .i;:ii;::,irsXAAXX2AA222AAAAAAA5352552A222i:,.:</text>
<text x="15" y="245" class="body ascii">     :.:ii::iiiXXsXA253335533525533hhhhhh33335; ;.</text>
<text x="15" y="260" class="body ascii">      ,;.:.;XAXA225333hhMMhh35533hhMMhhMMMhhhhs:,</text>
<text x="15" y="275" class="body ascii">        r,:A352255555555533333h333353333333hhh52X</text>
<text x="15" y="290" class="body ascii">      rsrrs552Xsr;,....,:iX5555355A:,,:;::,;i25:A,</text>
<text x="15" y="305" class="body ascii">      , ssX522XrsA2AAXsXAXXXXsXXXXXsrirsXAAXrA32s</text>
<text x="15" y="320" class="body ascii">      i;ssA5A2XXAsir    rssss25Ai:;iXs    ,iX2hM;</text>
<text x="15" y="335" class="body ascii">       s::2522AXsiA2....isXrshHhXrXsAA....23MMhM;</text>
<text x="15" y="350" class="body ascii">       iir255555222XXAXXXA222hHH5222AXAAA5hMHHHA</text>
<text x="15" y="365" class="body ascii">        i2XX555555555553355553HH3553hhMhhhhMMMH.</text>
<text x="15" y="380" class="body ascii">         ,rr252555533333552AA5MM5AX23MMMhhhhhh3</text>
<text x="15" y="395" class="body ascii">            s5XX225555352sAA3hMMMh5XX3h3hhhh352</text>
<text x="15" y="410" class="body ascii">            :52XA2222AXssr53hMMMMMh5XssA233523r</text>
<text x="15" y="425" class="body ascii">             X5AAAAAXsA533. .2552 . hh52AXAA22,</text>
<text x="15" y="440" class="body ascii">             :2AAAAAXA25332Asiiiis2hMh3535AAXi</text>
<text x="15" y="455" class="body ascii">              iXXAA22AssX222AXXXAA25AriX552rs</text>
<text x="15" y="470" class="body ascii">               :ssXsX2553A.. ... ..5A2Xs52:;</text>
<text x="15" y="485" class="body ascii">                sXssX2553335222222253hh5X;;,</text>
<text x="15" y="500" class="body ascii">              ;X22AAA2222555AAssrsX252Ari5Xss;</text>
<text x="15" y="515" class="body ascii">            iAA:52AAAA25555555555533332s3hriA22si,</text>
<text x="15" y="530" class="body ascii">         :rsXAX.25222AXX53333h3hhhhhh5AhM5;issi;r2Ar,</text>
<text x="15" y="545" class="body ascii">      ,rsssrXss.i25222AAXXA2555252AXsAhMMr;i;::isXA22XXi</text>
<text x="15" y="560" class="body ascii">    iXXsrXA22Asr,X222AAAAAXsi;;iiis23hhhs:;;:isXXAXssAX:</text>
<text x="15" y="575" class="body ascii"> ;rrAAA2AA22Asss.sAAAAAAAAAAAAAAA253hhhr,;;;irsssrrrrXXr</text>
<text x="15" y="590" class="body ascii">s::AA22As;,.. ;s,sAAsXAAXAAAA2AAA253h3i,:;;;irri;rrrsXAi</text>
<text x="15" y="605" class="body ascii">;;ssr;.   ..,..;:iAAXrXAAXXXXXXXA2552,.:;;;iriiissrrssAA</text>
<text x="500" y="28" class="body">Hiro</text>
<text x="545" y="28" class="muted">-----------------------------------------------------------</text>
<text x="500" y="66" class="body">01 / PROFILE</text>
<text x="620" y="66" class="muted">--------------------------------------------------</text>
<text x="500" y="85" class="muted">.</text>
<text x="519" y="85" class="key">Handle</text>
<text x="573.2" y="85" class="body">:</text>
<text x="586.3" y="85" class="muted">..............</text>
<text x="720" y="85" class="value">Hiro</text>
<text x="500" y="104" class="muted">.</text>
<text x="519" y="104" class="key">Role</text>
<text x="555.2" y="104" class="body">:</text>
<text x="568.3" y="104" class="muted">................</text>
<text x="720" y="104" class="value">Full-Stack Engineer Intern</text>
<text x="500" y="123" class="muted">.</text>
<text x="519" y="123" class="key">Workplace</text>
<text x="600.4" y="123" class="body">:</text>
<text x="613.5" y="123" class="muted">...........</text>
<text x="720" y="123" class="value">SaaS startup in Japan</text>
<text x="500" y="180" class="body">02 / ENVIRONMENT</text>
<text x="654" y="180" class="muted">----------------------------------------------</text>
<text x="500" y="199" class="muted">.</text>
<text x="519" y="199" class="key">OS</text>
<text x="537.1" y="199" class="body">:</text>
<text x="550.2" y="199" class="muted">..................</text>
<text x="720" y="199" class="value">macOS 26</text>
<text x="500" y="218" class="muted">.</text>
<text x="519" y="218" class="key">Architecture</text>
<text x="627.5" y="218" class="body">:</text>
<text x="640.6" y="218" class="muted">........</text>
<text x="720" y="218" class="value">Apple Silicon</text>
<text x="500" y="237" class="muted">.</text>
<text x="519" y="237" class="key">Shell</text>
<text x="564.2" y="237" class="body">:</text>
<text x="577.3" y="237" class="muted">...............</text>
<text x="720" y="237" class="value">zsh</text>
<text x="500" y="256" class="muted">.</text>
<text x="519" y="256" class="key">Runtime</text>
<text x="582.3" y="256" class="body">:</text>
<text x="595.4" y="256" class="muted">.............</text>
<text x="720" y="256" class="value">Node.js</text>
<text x="500" y="275" class="muted">.</text>
<text x="519" y="275" class="key">Timezone</text>
<text x="591.3" y="275" class="body">:</text>
<text x="604.4" y="275" class="muted">............</text>
<text x="720" y="275" class="value">JST / UTC+9</text>
<text x="500" y="332" class="body">03 / LANGUAGES</text>
<text x="636" y="332" class="muted">------------------------------------------------</text>
<text x="500" y="351" class="muted">.</text>
<text x="519" y="351" class="key">Programming</text>
<text x="618.4" y="351" class="body">:</text>
<text x="631.5" y="351" class="muted">.........</text>
<text x="720" y="351" class="value">TypeScript, JavaScript, PHP</text>
<text x="500" y="370" class="muted">.</text>
<text x="519" y="370" class="key">Frontend</text>
<text x="591.3" y="370" class="body">:</text>
<text x="604.4" y="370" class="muted">............</text>
<text x="720" y="370" class="value">Next.js, React, Tailwind CSS</text>
<text x="500" y="389" class="muted">.</text>
<text x="519" y="389" class="key">Backend</text>
<text x="582.3" y="389" class="body">:</text>
<text x="595.4" y="389" class="muted">.............</text>
<text x="720" y="389" class="value">Laravel, PostgreSQL</text>
<text x="500" y="408" class="muted">.</text>
<text x="519" y="408" class="key">Spoken</text>
<text x="573.2" y="408" class="body">:</text>
<text x="586.3" y="408" class="muted">..............</text>
<text x="720" y="408" class="value">Japanese, English</text>
<text x="500" y="427" class="muted">.</text>
<text x="519" y="427" class="key">Learning</text>
<text x="591.3" y="427" class="body">:</text>
<text x="604.4" y="427" class="muted">............</text>
<text x="720" y="427" class="value">Python, Rust, Ruby, Java</text>
<text x="500" y="484" class="body">04 / TOOLING</text>
<text x="620" y="484" class="muted">--------------------------------------------------</text>
<text x="500" y="503" class="muted">.</text>
<text x="519" y="503" class="key">Workflow</text>
<text x="591.3" y="503" class="body">:</text>
<text x="604.4" y="503" class="muted">............</text>
<text x="720" y="503" class="value">Git, GitHub Actions, Docker</text>
<text x="500" y="560" class="body">05 / GITHUB</text>
<text x="620" y="560" class="muted">--------------------------------------------------</text>
<text x="500" y="579" class="muted">.</text>
<text x="519" y="579" class="key">Profile</text>
<text x="582.3" y="579" class="body">:</text>
<text x="595.4" y="579" class="muted">.............</text>
<text x="720" y="579" class="value">Hiro-Chiba</text>
</svg>
