<?xml version="1.0" encoding="UTF-8"?>
<svg xmlns="http://www.w3.org/2000/svg" width="1100" height="620" viewBox="0 0 1100 620" font-family="ConsolasFallback,Consolas,Menlo,monospace" font-size="15px" role="img" aria-labelledby="title desc">
<title id="title">Developer snapshot</title>
<desc id="desc">An ASCII portrait beside education, future plans, location, environment, languages, tooling, and current interests.</desc>
<style>
@font-face {
  src: local('Consolas'), local('Consolas Bold');
  font-family: 'ConsolasFallback';
  font-display: swap;
  size-adjust: 109%;
}
.body { fill: #c9d1d9; }
.key { fill: #ffa657; }
.value { fill: #a5d6ff; }
.muted { fill: #616e7f; }
.ascii { font-size: 14px; }
text { white-space: pre; font-variant-ligatures: none; }
</style>
<rect width="1100" height="620" rx="15" fill="#161b22"/>
<g transform="translate(-90 -12) scale(0.535)" fill="#f0f6fc" fill-opacity="0.94" font-family="Menlo,Consolas,monospace" font-size="16.5" xml:space="preserve" style="white-space:pre;font-variant-ligatures:none;text-rendering:geometricPrecision">
<text x="590.1" y="55.0">,</text>
<text x="580.2" y="71.5">,:,</text>
<text x="560.4" y="88.0">.;sXrrsAA2AXii,,,</text>
<text x="491.1" y="104.5">,;;irXX5333hh33HMM3hhhhhAi</text>
<text x="481.2" y="121.0">i2A2233h33533353533h333hhh2X:,</text>
<text x="411.9" y="137.5">,:;i;is522A35335A522A5533hh3253h3h352X:</text>
<text x="362.4" y="154.0">,irX233h552522A225AAXAAAAAA2255553533hhh55A2As;:</text>
<text x="352.5" y="170.5">i53hhhhMhM35A2A222AXXAAAXXsAX2A2233h3h3h3hhh3352s:</text>
<text x="332.7" y="187.0">,r53h3h33hMhh352222XssXsXssrssXsXXAA5255525255522A2s,</text>
<text x="322.8" y="203.5">iA353533h3h3h3322AAssrsssrsrsrsrssXXAXAA2252553252225s:</text>
<text x="303.0" y="220.0">.s52A225252522AAXXXXrrirrririrrrirrrrrrsrXX222252222A2AAs,</text>
<text x="293.1" y="236.5">;AA222222225AXssrXA2AsiiiririririririririrrXXAAAA2A2252522X:</text>
<text x="283.2" y="253.0">,rXXAAAAA2AAXXrsrsX332ri;i;iii;i;;;i;i;i;;;iirsXsXsXX2222523s</text>
<text x="273.3" y="269.5">,irXXAXXXAXXXAssrsX332rrii;iii;i;i;i;i;;;;;i;iirrssXsXX2255322,</text>
<text x="273.3" y="286.0">:rsrXAXsXsXXXrrisX2Asii;iiiii;i;;;;;;;;;;;;:;:;;;;iirrssAA5352s</text>
<text x="273.3" y="302.5">;ssXA2XXXXsXrsrsX2sr;i;iisrsrririi;i;iiiii;i;i;i;i;;;iissAA552A:</text>
<text x="263.4" y="319.0">;rrX25XssXrsirissXri:;;irssXXXssrrrririrrsrsrririi;i;i:;irsXX2A2r,</text>
<text x="253.5" y="335.5">;XXAA52AsXXsrrrssssr;iissAA2252522AAXAXAA22222AAXXrrirrr;iirsXAAAAi</text>
<text x="253.5" y="352.0">;;is2AAssrrrrirrsrr;irsX2A55353335355555355552522AAssrsss;;irrXXAX;</text>
<text x="273.3" y="368.5">:sXAXsrsirrrrrrsirrXX225533h3h3hhMhMhhhh3h33535522AAsXXs;rirsAss;</text>
<text x="273.3" y="385.0">;rXXsiiiriiiririrrXXAA523533h3hhhhhhM3hhh3h3h335522AAXAsiiiisrrr;.</text>
<text x="263.4" y="401.5">:rXXXrririririrrrrXXA2553533h3h3hhhhMhhhhhhhhhh3h335522AXrsirrsrr:,.</text>
<text x="263.4" y="418.0">:rsXsriiiiiririrrsXAA2255553533h3h3h3hhh3h3h3h3h3h3355A2XAXrirrsi:..</text>
<text x="263.4" y="434.5">:sAXsrririiirirrXXAA225533h3h3h3h3hhh3h3h3hhMhMhh3h335525A2Xsrsri:,</text>
<text x="273.3" y="451.0">issiririi;iiirssAX2252523533h3h3h53533h3h3hhMhMhMhh3353552Ariii;:</text>
<text x="283.2" y="467.5">sirrrii;iisrsXAXA25535hhh3h3h3MhMhMhMhMhMMHMHMHMMhMhh3h332sir;;,</text>
<text x="283.2" y="484.0">:rrrir;iirsXsAA2A225535hhMhMhM3hhh333h3hhMhMMMMMMMhMhh3h35sii,</text>
<text x="293.1" y="500.5">,riri;;rsAA2A225533hhhhMMHMHMHMHMMhMMMMHHHMHMMMHMMMMhMhh32ri</text>
<text x="312.9" y="517.0">iii;is2222225533h3h3h3hhMhMhMhMMMhMMMhMMMhMhMhMMMhMhM3h5A;</text>
<text x="312.9" y="533.5">.sirs22555233353552553533h3hhMhMMMhMhh3h3h333h3h3hhMMM335HX</text>
<text x="293.1" y="550.0">,,,:Xs253552525AAssrsrssXXA2553hhhhhh3355XXsssXsssXX2A553353h,</text>
<text x="283.2" y="566.5">:532XAA5h3355AAXAsXssrririssA255h3h3h33552XrrirrssXsXsXA53h225,</text>
<text x="283.2" y="583.0">;2X222A3535322AAX2A2AAXAXAXAA22553535522AAXXrrrssAA2A2A223h33r</text>
<text x="283.2" y="599.5">,A25525335335A22222XXsssssAA2A525533355AAXXssriiiissA25253MhM,</text>
<text x="293.1" y="616.0">s552223335322A2AXrXrr;iissXXAA2533h332AXXsXAXrrrrXXrXA55hhM3</text>
<text x="293.1" y="632.5">,322A53h335322AXsA2AsssXXssAA223hMMHh5A22AA2AAAAA5A2533MMHMh</text>
<text x="303.0" y="649.0">s5AA2h333355252222A2A2AAAAA2255hMGMM3522A2A22525255hhHMHMH3</text>
<text x="303.0" y="665.5">;35233h3hhh3333552525222225533hMGGGMM3353552555533MMHHGHHHi</text>
<text x="312.9" y="682.0">r53533h3h3h33335355555353333hhMHGGHhhhh3hhh3hhMhMMHHHHHHA</text>
<text x="322.8" y="698.5">i3h533hhhhh3hhhhhhhhhhh3h3hhMMHHSHHhMhhhHMHMHMHMHHGHGHHi</text>
<text x="332.7" y="715.0">:23533h3h3h3h3h3hhh3h3h333h3MMHHHMM3h3MhMMHMHMHMHMHMMM;</text>
<text x="352.5" y="731.5">iA5h333h3h3hhMhMhhhh3h333hhHHGHHhh3hhMMHHHHHHHMHMMhh,</text>
<text x="372.3" y="748.0">i3353533h3hhh3hhh335353hMMHHHMHMh33hMMMMHMHMHMM3h5</text>
<text x="382.2" y="764.5">233533h3h3h3h3h33533hhMHHHGHGHHMM3hhhhMMMMHMMhhh2</text>
<text x="382.2" y="781.0">sh535353333353555323hhhMMMMHMHMMh333533hhMhhhh3hi</text>
<text x="382.2" y="797.5">i335353535355555h33233hhMhMhMhh53hMhh3h3hhh3h3h5,</text>
<text x="382.2" y="814.0">.53353535555253h3h35A225533355253MhMhhhh333333hi</text>
<text x="392.1" y="830.5">sh3353535353533h3h3525222522253hhMhh3hhM333335</text>
<text x="392.1" y="847.0">:A353535355552333335522AAX225533h3h333hhh335hi</text>
<text x="402.0" y="863.5">,2h3353535355A253535525222553335522533hhh3hX</text>
<text x="411.9" y="880.0">,X35353535355AAXAXXXAXAAAXAXAXAA5533h3353s</text>
<text x="431.7" y="896.5">r35353533hhh3322A2A2255553555hMMhh3353A</text>
<text x="431.7" y="913.0">;35552553333h3355252525552553hMhM3355X:</text>
<text x="431.7" y="929.5">rh535553333h3h3h33552525535hhMhMh355AAr:</text>
<text x="411.9" y="946.0">iAh3355535333333h3355252525533h3h3355hM335A:</text>
<text x="392.1" y="962.5">i5553h3353533h3h3hhh3h335353533hhhhh333HHh25532Xi:</text>
<text x="372.3" y="979.0">;2322Xh33555553533h3hhh3hhh3h3hhMhMhh333hhM2AA225552Ai,</text>
<text x="352.5" y="995.5">:X5525Xs53535353535hhhhMhMhMhhhMhMhMhMhh3MhH3AXAAAAAXXX55A;</text>
<text x="322.8" y="1012.0">,s232522As;A5353535353533h3hhhhh3hhhhhhh335hhMh2sXssssrsXA255hX:</text>
<text x="303.0" y="1028.5">iA3335522XAris255535353535353333333333333533hhMM3ssrsrsrssAA22553335Ai</text>
<text x="283.2" y="1045.0">:235255522AAsrirX2255553555525252222222225533hhhhhXsrririrsXX2A2A22553Xr</text>
<text x="253.5" y="1061.5">,s235355252522XXrsisA225535353555522A2A225253hhhhMhhArrrirrssXXAA2A2A2A22si</text>
<text x="233.7" y="1078.0">;s5555525222225AXssr;rAA225255525552525252525533hhMhhAriiirirsXsXXAXAAAXAA2Xs</text>
<text x="213.9" y="1094.5">;XXA2553555522XXri:rsr;sX2A5255555555553555353533hhhhhAr;iirrrrXXXXXsXsAAAA222s</text>
<text x="204.0" y="1111.0">sXrsA2A2252Ari,, . .,ri;iXX2A2252525255555555553533h33Ai;iiririsrsssssXAXAXAA2As</text>
<text x="204.0" y="1127.5">XssXAAAAXr;,. .   . .:i;rsAA2A22555552555535553533h33Ar;i;iiiissssXsXXAXAXAAAA5X</text>
<text x="204.0" y="1144.0">sssXsXsi:,   .       ,:;isX2A2A225555525252555535353Ar;i;i;iirrsrssXsXXXXAXAA2AA</text>
</g>
<text x="500" y="28" class="body">01 / BASE</text>
<text x="590" y="28" class="muted">-----------------------------------------------------</text>
<text x="500" y="47" class="muted">.</text>
<text x="519" y="47" class="key">Status</text>
<text x="573.2" y="47" class="body">:</text>
<text x="586.3" y="47" class="muted">..............</text>
<text x="720" y="47" class="value">Undergraduate student</text>
<text x="500" y="66" class="muted">.</text>
<text x="519" y="66" class="key">Next</text>
<text x="555.2" y="66" class="body">:</text>
<text x="568.3" y="66" class="muted">................</text>
<text x="720" y="66" class="value">Graduate studies</text>
<text x="500" y="85" class="muted">.</text>
<text x="519" y="85" class="key">Location</text>
<text x="591.3" y="85" class="body">:</text>
<text x="604.4" y="85" class="muted">............</text>
<text x="720" y="85" class="value">Japan</text>
<text x="500" y="104" class="muted">.</text>
<text x="519" y="104" class="key">Timezone</text>
<text x="591.3" y="104" class="body">:</text>
<text x="604.4" y="104" class="muted">............</text>
<text x="720" y="104" class="value">JST / UTC+9</text>
<text x="500" y="123" class="muted">.</text>
<text x="519" y="123" class="key">Role</text>
<text x="555.2" y="123" class="body">:</text>
<text x="568.3" y="123" class="muted">................</text>
<text x="720" y="123" class="value">Full-Stack Engineer Intern</text>
<text x="500" y="142" class="muted">.</text>
<text x="519" y="142" class="key">Workplace</text>
<text x="600.4" y="142" class="body">:</text>
<text x="613.5" y="142" class="muted">...........</text>
<text x="720" y="142" class="value">SaaS startup in Japan</text>
<text x="500" y="180" class="body">02 / ENVIRONMENT</text>
<text x="654" y="180" class="muted">----------------------------------------------</text>
<text x="500" y="199" class="muted">.</text>
<text x="519" y="199" class="key">OS</text>
<text x="537.1" y="199" class="body">:</text>
<text x="550.2" y="199" class="muted">..................</text>
<text x="720" y="199" class="value">macOS 26</text>
<text x="500" y="218" class="muted">.</text>
<text x="519" y="218" class="key">Architecture</text>
<text x="627.5" y="218" class="body">:</text>
<text x="640.6" y="218" class="muted">........</text>
<text x="720" y="218" class="value">Apple Silicon</text>
<text x="500" y="237" class="muted">.</text>
<text x="519" y="237" class="key">Shell</text>
<text x="564.2" y="237" class="body">:</text>
<text x="577.3" y="237" class="muted">...............</text>
<text x="720" y="237" class="value">zsh</text>
<text x="500" y="256" class="muted">.</text>
<text x="519" y="256" class="key">Runtime</text>
<text x="582.3" y="256" class="body">:</text>
<text x="595.4" y="256" class="muted">.............</text>
<text x="720" y="256" class="value">Node.js</text>
<text x="500" y="332" class="body">03 / LANGUAGES</text>
<text x="636" y="332" class="muted">------------------------------------------------</text>
<text x="500" y="351" class="muted">.</text>
<text x="519" y="351" class="key">Programming</text>
<text x="618.4" y="351" class="body">:</text>
<text x="631.5" y="351" class="muted">.........</text>
<text x="720" y="351" class="value">TypeScript, JavaScript, PHP</text>
<text x="500" y="370" class="muted">.</text>
<text x="519" y="370" class="key">Frontend</text>
<text x="591.3" y="370" class="body">:</text>
<text x="604.4" y="370" class="muted">............</text>
<text x="720" y="370" class="value">Next.js, React, Tailwind CSS</text>
<text x="500" y="389" class="muted">.</text>
<text x="519" y="389" class="key">Backend</text>
<text x="582.3" y="389" class="body">:</text>
<text x="595.4" y="389" class="muted">.............</text>
<text x="720" y="389" class="value">Laravel, PostgreSQL</text>
<text x="500" y="408" class="muted">.</text>
<text x="519" y="408" class="key">Spoken</text>
<text x="573.2" y="408" class="body">:</text>
<text x="586.3" y="408" class="muted">..............</text>
<text x="720" y="408" class="value">Japanese, English</text>
<text x="500" y="427" class="muted">.</text>
<text x="519" y="427" class="key">Learning</text>
<text x="591.3" y="427" class="body">:</text>
<text x="604.4" y="427" class="muted">............</text>
<text x="720" y="427" class="value">Python, Rust, Ruby, Java</text>
<text x="500" y="484" class="body">04 / TOOLING</text>
<text x="620" y="484" class="muted">--------------------------------------------------</text>
<text x="500" y="503" class="muted">.</text>
<text x="519" y="503" class="key">Workflow</text>
<text x="591.3" y="503" class="body">:</text>
<text x="604.4" y="503" class="muted">............</text>
<text x="720" y="503" class="value">Git, GitHub Actions, Docker</text>
<text x="500" y="560" class="body">05 / CURRENT</text>
<text x="620" y="560" class="muted">--------------------------------------------------</text>
<text x="500" y="579" class="muted">.</text>
<text x="519" y="579" class="key">Building</text>
<text x="591.3" y="579" class="body">:</text>
<text x="604.4" y="579" class="muted">............</text>
<text x="720" y="579" class="value">SaaS products &amp; developer tools</text>
<text x="500" y="598" class="muted">.</text>
<text x="519" y="598" class="key">Exploring</text>
<text x="600.4" y="598" class="body">:</text>
<text x="613.5" y="598" class="muted">...........</text>
<text x="720" y="598" class="value">CLI, TUI &amp; workflow automation</text>
</svg>
