<?xml version="1.0" encoding="UTF-8"?>
<svg xmlns="http://www.w3.org/2000/svg" width="1100" height="620" viewBox="0 0 1100 620" font-family="ConsolasFallback,Consolas,Menlo,monospace" font-size="15px" role="img" aria-labelledby="title desc">
<title id="title">Hiro profile card</title>
<desc id="desc">An ASCII portrait of Hiro beside profile, environment, language, and tooling information.</desc>
<style>
@font-face {
  src: local('Consolas'), local('Consolas Bold');
  font-family: 'ConsolasFallback';
  font-display: swap;
  size-adjust: 109%;
}
.body { fill: #24292f; }
.key { fill: #953800; }
.value { fill: #0a3069; }
.muted { fill: #c2cfde; }
.ascii { font-size: 14px; }
text { white-space: pre; font-variant-ligatures: none; }
</style>
<rect width="1100" height="620" rx="15" fill="#f6f8fa"/>
<text x="15" y="20" class="body ascii">                           ,.</text>
<text x="15" y="35" class="body ascii">                        .,;r;irrr;:,..</text>
<text x="15" y="50" class="body ascii">                   .rAAXsXAAA5222255Xr;:</text>
<text x="15" y="65" class="body ascii">            ,,;irsrX33553hh3hh5522552A252r:,</text>
<text x="15" y="80" class="body ascii">          ;AXsXXsA33355hMhhMHMhh35AAXAAAA22As.</text>
<text x="15" y="95" class="body ascii">        .X52AAAAXXA25hHGMMHHGHHHMhhh3555223hhs,</text>
<text x="15" y="110" class="body ascii">       :A335555hMHM3hGSGGGGGGGGGGGGGMh5353253h2,</text>
<text x="15" y="125" class="body ascii">      :rX3h333hHHG3s5GSGSGSSSSSSSSSSSGHMMMh22255:</text>
<text x="15" y="140" class="body ascii">     ,is3HMMhhMHM52MSSGSGSSSSSSSSSSSSSSSGGGM35Ahs</text>
<text x="15" y="155" class="body ascii">    .;sAhMhMMHHM5h##SSGHHGSS#S#SSSSS###SSS#SHMh33;</text>
<text x="15" y="170" class="body ascii">   ,rrs3hMhMGHHhHSSSHh55555hhHMhh33hhMHGGGGSSGH332:</text>
<text x="15" y="185" class="body ascii">   .,:2HGGGGHHHHGGHh5AXXssssssssXXXXAA23MMhM#SGhM2:</text>
<text x="15" y="200" class="body ascii">    .XhHGGHGHHHGGM35AAXXsXXssssXXssssXXA255hGGGHH5;,</text>
<text x="15" y="215" class="body ascii">    ;AhHGGGGGGGHM3522AAAAAAAAAAAAAAXXsXXA253hMGGG5:,</text>
<text x="15" y="230" class="body ascii">    ,XHGHHGSGSHMh35222AAAAXAAAAAAAAXsXXXXA2225GSSM,</text>
<text x="15" y="245" class="body ascii">     ;HGHGSSGHH33552AAXXXXXsXXAXXXsrrrrrssXXXAG#5i</text>
<text x="15" y="260" class="body ascii">      :5#S#Sh5352AXsrrrriiirrXXssriirrriiirrrXhh.</text>
<text x="15" y="275" class="body ascii">        2SShAXAAXAA222222AXXsrrssXA2222AAAAssrAX,</text>
<text x="15" y="290" class="body ascii">      :rrhhAXA533hMHHHHHMh5AXAXXAA5HGGHHMMMh32X5X,</text>
<text x="15" y="305" class="body ascii">      3Gh33XAA533222553555555525333hMHMh322532sAi</text>
<text x="15" y="320" class="body ascii">      iM335XAA552333@@@@333352A5hMhh3h@@@@Mh5Asr:</text>
<text x="15" y="335" class="body ascii">       2HM2XXA225352####h3335Xis3h3352####5Asrri,</text>
<text x="15" y="350" class="body ascii">       ;hh2XXXXAAA2255555522As;iA2222222AXsr;;ir</text>
<text x="15" y="365" class="body ascii">        :X22AsXXXXXAAAAXXXXXXsiisXXsrrrrrrriiisi</text>
<text x="15" y="380" class="body ascii">         .iAAXAAXXXsssrssXAAAXiisAAAsriiiiiirrX:</text>
<text x="15" y="395" class="body ascii">            iX22AXXXXXXA22AAXri;rrXA2XXssrrrsXr</text>
<text x="15" y="410" class="body ascii">            ,XA22AAAA22225XssrrrirsXA2AAXXXXXsi</text>
<text x="15" y="425" class="body ascii">             XXA2A22552AX###322225###sXXAA22Ar.</text>
<text x="15" y="440" class="body ascii">             rX2A22222AXssA553hh35AsrsXXsX222:</text>
<text x="15" y="455" class="body ascii">              ;A222AAA222A22553522AA255AXX25r</text>
<text x="15" y="470" class="body ascii">               .X55*#***#***#***#***#***X5hr</text>
<text x="15" y="485" class="body ascii">                :5555AXsssXA2AAAAAAAsrsX53A,</text>
<text x="15" y="500" class="body ascii">              .is2222AAAXXsXA225222AsXA53AAAi,</text>
<text x="15" y="515" class="body ascii">            ,r5MAA22222XXsXXXXAAAAXsssA2XrhM3AXsr:</text>
<text x="15" y="530" class="body ascii">         .:s253G5XAAA222AXssrrrrrrrrrXAsi2HMMMMHhAr;,</text>
<text x="15" y="545" class="body ascii">      .:X25553hGH2AXAA22222222222222AXsisMGHGGHMh552Xri;</text>
<text x="15" y="560" class="body ascii">    ,iA535AA25hMGh2AA2A2A2253hhh335AsrrXMSGGGHM35533352X</text>
<text x="15" y="575" class="body ascii"> ,r222225533hMhhGM22222A2222555552AsrrAH#GGGHhh3hhhhh55A</text>
<text x="15" y="590" class="body ascii">2HH5255hHS99BBSMGM5255222222AAA2AAXss2G#GGGGMMMMMhhh3525</text>
<text x="15" y="605" class="body ascii">HMh3hH#9BBB999BSGH523352225522222AXX2G#SSGGHMMMMh3hhh322</text>
<text x="500" y="28" class="body">Hiro</text>
<text x="545" y="28" class="muted">-----------------------------------------------------------</text>
<text x="500" y="66" class="body">01 / PROFILE</text>
<text x="620" y="66" class="muted">--------------------------------------------------</text>
<text x="500" y="85" class="muted">.</text>
<text x="519" y="85" class="key">Handle</text>
<text x="573.2" y="85" class="body">:</text>
<text x="586.3" y="85" class="muted">..............</text>
<text x="720" y="85" class="value">Hiro</text>
<text x="500" y="104" class="muted">.</text>
<text x="519" y="104" class="key">Role</text>
<text x="555.2" y="104" class="body">:</text>
<text x="568.3" y="104" class="muted">................</text>
<text x="720" y="104" class="value">Full-Stack Engineer Intern</text>
<text x="500" y="123" class="muted">.</text>
<text x="519" y="123" class="key">Workplace</text>
<text x="600.4" y="123" class="body">:</text>
<text x="613.5" y="123" class="muted">...........</text>
<text x="720" y="123" class="value">SaaS startup in Japan</text>
<text x="500" y="180" class="body">02 / ENVIRONMENT</text>
<text x="654" y="180" class="muted">----------------------------------------------</text>
<text x="500" y="199" class="muted">.</text>
<text x="519" y="199" class="key">OS</text>
<text x="537.1" y="199" class="body">:</text>
<text x="550.2" y="199" class="muted">..................</text>
<text x="720" y="199" class="value">macOS 26</text>
<text x="500" y="218" class="muted">.</text>
<text x="519" y="218" class="key">Architecture</text>
<text x="627.5" y="218" class="body">:</text>
<text x="640.6" y="218" class="muted">........</text>
<text x="720" y="218" class="value">Apple Silicon</text>
<text x="500" y="237" class="muted">.</text>
<text x="519" y="237" class="key">Shell</text>
<text x="564.2" y="237" class="body">:</text>
<text x="577.3" y="237" class="muted">...............</text>
<text x="720" y="237" class="value">zsh</text>
<text x="500" y="256" class="muted">.</text>
<text x="519" y="256" class="key">Runtime</text>
<text x="582.3" y="256" class="body">:</text>
<text x="595.4" y="256" class="muted">.............</text>
<text x="720" y="256" class="value">Node.js</text>
<text x="500" y="275" class="muted">.</text>
<text x="519" y="275" class="key">Timezone</text>
<text x="591.3" y="275" class="body">:</text>
<text x="604.4" y="275" class="muted">............</text>
<text x="720" y="275" class="value">JST / UTC+9</text>
<text x="500" y="332" class="body">03 / LANGUAGES</text>
<text x="636" y="332" class="muted">------------------------------------------------</text>
<text x="500" y="351" class="muted">.</text>
<text x="519" y="351" class="key">Programming</text>
<text x="618.4" y="351" class="body">:</text>
<text x="631.5" y="351" class="muted">.........</text>
<text x="720" y="351" class="value">TypeScript, JavaScript, PHP</text>
<text x="500" y="370" class="muted">.</text>
<text x="519" y="370" class="key">Frontend</text>
<text x="591.3" y="370" class="body">:</text>
<text x="604.4" y="370" class="muted">............</text>
<text x="720" y="370" class="value">Next.js, React, Tailwind CSS</text>
<text x="500" y="389" class="muted">.</text>
<text x="519" y="389" class="key">Backend</text>
<text x="582.3" y="389" class="body">:</text>
<text x="595.4" y="389" class="muted">.............</text>
<text x="720" y="389" class="value">Laravel, PostgreSQL</text>
<text x="500" y="408" class="muted">.</text>
<text x="519" y="408" class="key">Spoken</text>
<text x="573.2" y="408" class="body">:</text>
<text x="586.3" y="408" class="muted">..............</text>
<text x="720" y="408" class="value">Japanese, English</text>
<text x="500" y="427" class="muted">.</text>
<text x="519" y="427" class="key">Learning</text>
<text x="591.3" y="427" class="body">:</text>
<text x="604.4" y="427" class="muted">............</text>
<text x="720" y="427" class="value">Python, Rust, Ruby, Java</text>
<text x="500" y="484" class="body">04 / TOOLING</text>
<text x="620" y="484" class="muted">--------------------------------------------------</text>
<text x="500" y="503" class="muted">.</text>
<text x="519" y="503" class="key">Workflow</text>
<text x="591.3" y="503" class="body">:</text>
<text x="604.4" y="503" class="muted">............</text>
<text x="720" y="503" class="value">Git, GitHub Actions, Docker</text>
<text x="500" y="560" class="body">05 / GITHUB</text>
<text x="620" y="560" class="muted">--------------------------------------------------</text>
<text x="500" y="579" class="muted">.</text>
<text x="519" y="579" class="key">Profile</text>
<text x="582.3" y="579" class="body">:</text>
<text x="595.4" y="579" class="muted">.............</text>
<text x="720" y="579" class="value">Hiro-Chiba</text>
</svg>
